<svg xmlns="http://www.w3.org/2000/svg" width="160" height="51" viewBox="0 0 160 51">
    <g fill="none" fill-rule="evenodd">
        <g>
            <g>
                <text fill="#2D3130" font-family="Muli-Regular, Muli" font-size="19" transform="translate(-100 -20) translate(100 20)">
                    <tspan x="55" y="26">AL ITTIHAD</tspan> <tspan x="55" y="46">AL WATANI</tspan>
                </text>
                <g fill="#031892" fill-opacity=".48">
                    <path d="M25.501 5C33.944 7.962 40 16.022 40 25.5c0 9.479-6.056 17.539-14.5 20.5C17.056 43.038 11 34.978 11 25.5c0-9.473 6.049-17.529 14.484-20.494z" transform="translate(-100 -20) translate(100 20)"/>
                    <path d="M25.5 4.936C34.071 7.909 40.22 16 40.22 25.518c0 9.516-6.149 17.608-14.72 20.582-8.571-2.974-14.72-11.066-14.72-20.582 0-9.511 6.14-17.6 14.704-20.577z" transform="translate(-100 -20) translate(100 20) rotate(30 25.5 25.518)"/>
                    <path d="M25.5 4.936C34.071 7.909 40.22 16 40.22 25.518c0 9.516-6.149 17.608-14.72 20.582-8.571-2.974-14.72-11.066-14.72-20.582 0-9.511 6.14-17.6 14.704-20.577z" transform="translate(-100 -20) translate(100 20) rotate(60 25.5 25.518)"/>
                    <path d="M25.5 5C33.945 7.962 40 16.021 40 25.5S33.943 43.039 25.5 46C17.056 43.038 11 34.978 11 25.5c0-9.473 6.049-17.529 14.484-20.495z" transform="translate(-100 -20) translate(100 20) rotate(90 25.5 25.5)"/>
                    <path d="M25.5 4.936C34.071 7.909 40.22 16 40.22 25.518c0 9.516-6.149 17.608-14.72 20.582-8.571-2.974-14.72-11.066-14.72-20.582 0-9.511 6.14-17.6 14.704-20.577z" transform="translate(-100 -20) translate(100 20) rotate(120 25.5 25.518)"/>
                    <path d="M25.5 4.936C34.071 7.909 40.22 16 40.22 25.518c0 9.516-6.149 17.608-14.72 20.582-8.571-2.974-14.72-11.066-14.72-20.582 0-9.511 6.14-17.6 14.704-20.577z" transform="translate(-100 -20) translate(100 20) rotate(150 25.5 25.518)"/>
                </g>
            </g>
        </g>
    </g>
</svg>
