<svg xmlns="http://www.w3.org/2000/svg" xmlns:xlink="http://www.w3.org/1999/xlink" width="60" height="60" viewBox="0 0 60 60">
    <defs>
        <path id="tudcldtbva" d="M0.08 1.126L16.496 1.126 16.496 17.964 0.08 17.964z"/>
        <path id="kprwe0e5mc" d="M0 0.35L28.078 0.35 28.078 22.186 0 22.186z"/>
        <path id="xogy4bu0le" d="M1.238 1.126L17.653 1.126 17.653 17.964 1.238 17.964z"/>
        <path id="r614snzbag" d="M0.148 0.35L28.226 0.35 28.226 22.186 0.148 22.186z"/>
        <path id="9p0kt8fxoi" d="M0.749 0.479L27.529 0.479 27.529 20 0.749 20z"/>
    </defs>
    <g fill="none" fill-rule="evenodd">
        <g>
            <g>
                <g>
                    <g transform="translate(-1023 -889) translate(1023 889) translate(0 9.75) translate(6 .75)">
                        <mask id="4j7sj4lwlb" fill="#fff">
                            <use xlink:href="#tudcldtbva"/>
                        </mask>
                        <path fill="#1B1464" d="M8.288 3.126c-3.451 0-6.258 2.878-6.258 6.418s2.807 6.42 6.258 6.42c3.452 0 6.258-2.88 6.258-6.42S11.74 3.126 8.288 3.126m0 14.838c-4.526 0-8.208-3.778-8.208-8.42 0-4.642 3.682-8.418 8.208-8.418s8.208 3.776 8.208 8.418c0 4.642-3.682 8.42-8.208 8.42" mask="url(#4j7sj4lwlb)"/>
                    </g>
                    <g transform="translate(-1023 -889) translate(1023 889) translate(0 9.75) translate(0 18.75)">
                        <mask id="f1du126ajd" fill="#fff">
                            <use xlink:href="#kprwe0e5mc"/>
                        </mask>
                        <path fill="#1B1464" d="M13.678 2.396C7.238 2.396 2 7.755 2 14.34v.546c0 2.897 2.304 5.253 5.136 5.253h13.808c2.832 0 5.134-2.356 5.134-5.253v-.546c0-6.586-5.238-11.945-11.678-11.945h-.722zm7.266 19.79H7.136C3.202 22.186 0 18.91 0 14.887v-.546C0 6.626 6.136.351 13.678.351h.722c7.542 0 13.678 6.275 13.678 13.99v.546c0 4.024-3.2 7.299-7.134 7.299z" mask="url(#f1du126ajd)"/>
                    </g>
                    <g transform="translate(-1023 -889) translate(1023 889) translate(0 9.75) translate(36 .75)">
                        <mask id="s9bqijagdf" fill="#fff">
                            <use xlink:href="#xogy4bu0le"/>
                        </mask>
                        <path fill="#1B1464" d="M9.445 3.126c-3.451 0-6.257 2.878-6.257 6.418s2.806 6.42 6.257 6.42c3.452 0 6.258-2.88 6.258-6.42s-2.806-6.418-6.258-6.418m0 14.838c-4.526 0-8.207-3.778-8.207-8.42 0-4.642 3.681-8.418 8.207-8.418 4.526 0 8.208 3.776 8.208 8.418 0 4.642-3.682 8.42-8.208 8.42" mask="url(#s9bqijagdf)"/>
                    </g>
                    <g transform="translate(-1023 -889) translate(1023 889) translate(0 9.75) translate(31.5 18.75)">
                        <mask id="qz8mfi5ndh" fill="#fff">
                            <use xlink:href="#r614snzbag"/>
                        </mask>
                        <path fill="#1B1464" d="M13.826 2.396c-6.44 0-11.678 5.359-11.678 11.945v.546c0 2.897 2.304 5.253 5.136 5.253h13.808c2.832 0 5.134-2.356 5.134-5.253v-.546c0-6.586-5.238-11.945-11.678-11.945h-.722zm7.266 19.79H7.284c-3.934 0-7.136-3.275-7.136-7.299v-.546C.148 6.626 6.284.351 13.826.351h.722c7.542 0 13.678 6.275 13.678 13.99v.546c0 4.024-3.2 7.299-7.134 7.299z" mask="url(#qz8mfi5ndh)"/>
                    </g>
                    <g>
                        <path fill="#7F79E3" d="M21.757 8.266c0 4.132-3.41 7.482-7.618 7.482s-7.616-3.35-7.616-7.482c0-4.134 3.408-7.484 7.616-7.484s7.618 3.35 7.618 7.484" transform="translate(-1023 -889) translate(1023 889) translate(0 9.75) translate(15 5.25)"/>
                        <g transform="translate(-1023 -889) translate(1023 889) translate(0 9.75) translate(15 5.25) translate(0 16)">
                            <mask id="j6pk4c32jj" fill="#fff">
                                <use xlink:href="#9p0kt8fxoi"/>
                            </mask>
                            <path fill="#7F79E3" d="M20.53 20H7.75c-3.868 0-7-3.077-7-6.875v-.542C.75 5.899 6.265.479 13.07.479h2.14c6.804 0 12.319 5.42 12.319 12.104v.542c0 3.798-3.133 6.876-6.999 6.876" mask="url(#j6pk4c32jj)"/>
                        </g>
                    </g>
                </g>
            </g>
        </g>
    </g>
</svg>
