<svg xmlns="http://www.w3.org/2000/svg" xmlns:xlink="http://www.w3.org/1999/xlink" width="60" height="60" viewBox="0 0 60 60">
    <defs>
        <path id="u1p8q3h3ba" d="M0 0.245L35.432 0.245 35.432 25.195 0 25.195z"/>
        <path id="f1wel984jc" d="M0.992 0.408L55.296 0.408 55.296 47.999 0.992 47.999z"/>
    </defs>
    <g fill="none" fill-rule="evenodd">
        <g>
            <g>
                <g>
                    <g transform="translate(-1181 -889) translate(1181 889) translate(0 5.25) translate(0 14.25)">
                        <mask id="uu47n0k3qb" fill="#fff">
                            <use xlink:href="#u1p8q3h3ba"/>
                        </mask>
                        <path fill="#7F79E3" d="M34.47.245c.633 0 1.093.578.928 1.166l-4.325 15.52c-.09.316-.346.565-.679.652l-29.11 7.58c-.59.153-1.174-.253-1.21-.84C-.13 20.917-.27 10.39 4.7.76c.166-.314.505-.514.87-.514h28.902z" style="mix-blend-mode:multiply" mask="url(#uu47n0k3qb)"/>
                    </g>
                    <g transform="translate(-1181 -889) translate(1181 889) translate(0 5.25) translate(4.5 .75)">
                        <mask id="hqa65nc6bd" fill="#fff">
                            <use xlink:href="#f1wel984jc"/>
                        </mask>
                        <path fill="#1B1464" d="M31.173 2.587c-2.798 0-5.751.399-8.777 1.202C15.75 5.554 10.81 9.252 7.714 14.776 1.194 26.408 3.27 39.666 4.467 44.83c.156.672.82 1.104 1.514.962l39.666-7.717c.47-.092.85-.434.995-.888l6.4-20.37c.102-.325.08-.663-.069-.95-1.025-2.01-4.112-7.074-10.586-10.63-3.203-1.761-7.036-2.65-11.214-2.65M5.718 48c-1.597 0-3.015-1.08-3.387-2.677-1.25-5.411-3.422-19.316 3.47-31.61 3.396-6.06 8.79-10.107 16.03-12.033C29.926-.464 37.603.112 43.446 3.326c7.006 3.849 10.364 9.36 11.481 11.553.406.798.48 1.717.209 2.588l-6.402 20.371c-.385 1.22-1.406 2.13-2.666 2.374l-39.669 7.72c-.228.045-.458.067-.681.067" mask="url(#hqa65nc6bd)"/>
                    </g>
                </g>
            </g>
        </g>
    </g>
</svg>
