<svg xmlns="http://www.w3.org/2000/svg" xmlns:xlink="http://www.w3.org/1999/xlink" width="55" height="55" viewBox="0 0 55 55">
    <defs>
        <path id="8i6onde90a" d="M0.001 1.002L51.669 1.002 51.669 43.49 0.001 43.49z"/>
    </defs>
    <g fill="none" fill-rule="evenodd">
        <g>
            <g>
                <g>
                    <g transform="translate(-1011 -1958) translate(1011 1958) translate(1.375 6.875)">
                        <mask id="b8t65h51qb" fill="#fff">
                            <use xlink:href="#8i6onde90a"/>
                        </mask>
                        <path fill="#1B1464" d="M11.898 35.469h27.873c1.67 0 3.026 1.385 3.026 3.09v1.838c0 .617.49 1.117 1.09 1.117h4.757c.601 0 1.091-.5 1.091-1.117V21.095c0-.183-.044-.365-.13-.524L40.682 3.567c-.191-.362-.559-.59-.962-.59H11.95c-.403 0-.77.228-.96.588L2.064 20.57c-.085.16-.128.342-.128.525v19.302c0 .617.488 1.117 1.09 1.117h4.756c.602 0 1.092-.5 1.092-1.117v-1.838c0-1.705 1.356-3.09 3.024-3.09m36.746 8.022h-4.757c-1.668 0-3.025-1.39-3.025-3.094v-1.838c0-.613-.49-1.113-1.091-1.113H11.898c-.602 0-1.09.5-1.09 1.113v1.838c0 1.704-1.358 3.094-3.026 3.094H3.025c-1.668 0-3.024-1.39-3.024-3.094V21.095c0-.51.124-1.014.358-1.462l8.923-17c.526-1.005 1.548-1.632 2.667-1.632H39.72c1.117 0 2.137.627 2.667 1.633l8.923 17c.234.447.36.951.36 1.461v19.302c0 1.704-1.356 3.094-3.026 3.094" mask="url(#b8t65h51qb)"/>
                    </g>
                    <path fill="#7F79E3" d="M46.363 33H5.887c-.973 0-1.762-.707-1.762-1.58v-6.464c0-.874.789-1.581 1.762-1.581h40.476c.973 0 1.762.707 1.762 1.58v6.464c0 .874-.789 1.581-1.762 1.581" transform="translate(-1011 -1958) translate(1011 1958) translate(1.375 6.875)"/>
                </g>
            </g>
        </g>
    </g>
</svg>
