<svg xmlns="http://www.w3.org/2000/svg" xmlns:xlink="http://www.w3.org/1999/xlink" width="60" height="61" viewBox="0 0 60 61">
    <defs>
        <path id="5bv4qgza1a" d="M0 1.095L60 1.095 60 34.095 0 34.095z"/>
        <path id="swhw0ic6fc" d="M12 18.405L48 18.405 48 54.405 12 54.405z"/>
    </defs>
    <g fill="none" fill-rule="evenodd">
        <g>
            <g transform="translate(-201 -891) translate(201 891.189)">
                <path fill="#7F79E3" style="mix-blend-mode:multiply" d="M48 44.999L29.534 54.405 12 45.474 12 26.732 29.536 18.405 48 26.732z"/>
                <g transform="translate(0 7.905)">
                    <mask id="lx7h6ddezb" fill="#fff">
                        <use xlink:href="#5bv4qgza1a"/>
                    </mask>
                    <path fill="#1B1464" d="M29.335 3.316c-.165 0-.332.04-.48.115l-.003.002L2.85 16.621c-.51.26-.56.72-.56.904 0 .187.056.644.567.9l26.707 13.336c.302.149.664.147.96 0L57.14 18.467c.517-.258.57-.722.57-.909-.002-.189-.062-.65-.58-.902L29.803 3.424c-.147-.07-.307-.108-.467-.108m.707 30.779c-.524 0-1.046-.12-1.524-.36L1.81 20.398C.696 19.845.005 18.748 0 17.532c-.005-1.214.68-2.318 1.79-2.88l26.002-13.19c.946-.482 2.081-.489 3.036-.026l27.325 13.231c1.128.547 1.838 1.651 1.847 2.876.005 1.229-.687 2.34-1.813 2.9L31.569 33.735c-.478.24-1.002.36-1.527.36" mask="url(#lx7h6ddezb)"/>
                </g>
            </g>
        </g>
    </g>
</svg>
