<svg xmlns="http://www.w3.org/2000/svg" width="55" height="55" viewBox="0 0 55 55">
    <g fill="none" fill-rule="evenodd">
        <g>
            <g>
                <g>
                    <path fill="#1B1464" d="M26.125 1.814C13.423 1.814 2.733 11.876 1.79 24.72c-.021.263.066.518.234.705.155.167.366.261.595.261H49.63c.229 0 .44-.094.595-.26.168-.188.255-.443.234-.706-.943-12.844-11.633-22.906-24.335-22.906M49.631 27.5H2.62c-.73 0-1.408-.3-1.904-.843-.506-.552-.763-1.308-.708-2.071C1.022 10.798 12.493 0 26.125 0c13.632 0 25.103 10.798 26.118 24.586.055.763-.202 1.52-.708 2.07-.496.545-1.173.844-1.904.844" transform="translate(-376 -1603) translate(376 1603) translate(1.375 8.25)"/>
                    <path fill="#7F79E3" style="mix-blend-mode:multiply" d="M20.625 39.875L33 39.875 33 12.375 20.625 12.375z" transform="translate(-376 -1603) translate(376 1603) translate(1.375 8.25)"/>
                </g>
            </g>
        </g>
    </g>
</svg>
