<svg xmlns="http://www.w3.org/2000/svg" xmlns:xlink="http://www.w3.org/1999/xlink" width="60" height="60" viewBox="0 0 60 60">
    <defs>
        <path id="5ntx8ov0pa" d="M0 0.75L48 0.75 48 51.75 0 51.75z"/>
    </defs>
    <g fill="none" fill-rule="evenodd">
        <g>
            <g>
                <g>
                    <g transform="translate(-378 -891) translate(378 891) translate(6 4.5) translate(0 .75)">
                        <mask id="5lvcvdbafb" fill="#fff">
                            <use xlink:href="#5ntx8ov0pa"/>
                        </mask>
                        <path fill="#1B1464" d="M2.189 8.118v11.83c0 8.584 4.117 16.68 11.01 21.664L24 49.416l10.8-7.804c6.892-4.984 11.009-13.08 11.009-21.665l-.074-11.829c-6.977 0-13.73-1.487-20.074-4.416l-1.683-.78-3.446 1.451C14.686 6.831 8.516 8.09 2.189 8.118zM24 51.75c-.237 0-.471-.07-.666-.215l-11.468-8.287C4.435 37.88 0 29.168 0 19.948V7.084c0-.572.489-1.032 1.093-1.032h.888c6.09 0 12.03-1.2 17.655-3.568L23.553.837c.298-.122.638-.115.929.017l2.145.993c6.04 2.79 12.469 4.206 19.108 4.206h1.17c.604 0 1.095.46 1.095 1.032v12.862c0 9.22-4.437 17.933-11.866 23.301h-.003l-11.467 8.287c-.195.145-.43.215-.664.215z" mask="url(#5lvcvdbafb)"/>
                    </g>
                    <path fill="#7F79E3" d="M30.896 15.023c-.208-.014-.414-.023-.627-.023-2.427 0-4.63 1.972-6.27 3.568C22.36 16.972 20.158 15 17.729 15c-.21 0-.419.01-.625.023-6.439.451-8.71 8.467-4.376 13.417 3.4 3.883 5.7 3.239 11.27 9.003v.057l.03-.027.028.027v-.057c5.573-5.764 7.813-5.12 11.216-9.003 4.334-4.95 2.063-12.966-4.376-13.417" transform="translate(-378 -891) translate(378 891) translate(6 4.5)"/>
                </g>
            </g>
        </g>
    </g>
</svg>
