<svg xmlns="http://www.w3.org/2000/svg" xmlns:xlink="http://www.w3.org/1999/xlink" width="55" height="55" viewBox="0 0 55 55">
    <defs>
        <path id="uc4xgli90a" d="M0 0.688L44 0.688 44 47.438 0 47.438z"/>
    </defs>
    <g fill="none" fill-rule="evenodd">
        <g>
            <g>
                <g>
                    <g transform="translate(-375 -1958) translate(375 1958) translate(5.5 4.125) translate(0 .688)">
                        <mask id="hew1m5b4ob" fill="#fff">
                            <use xlink:href="#uc4xgli90a"/>
                        </mask>
                        <path fill="#1B1464" d="M2.006 7.442v10.843c0 7.869 3.774 15.291 10.093 19.86L22 45.298l9.9-7.153c6.318-4.569 10.092-11.991 10.092-19.86l-.069-10.843c-6.394 0-12.584-1.364-18.4-4.048l-1.543-.716-3.16 1.33C13.463 6.263 7.808 7.416 2.007 7.443zM22 47.437c-.217 0-.432-.064-.61-.196l-10.513-7.597C4.065 34.724 0 26.737 0 18.285V6.495c0-.525.448-.947 1.002-.947h.814c5.583 0 11.028-1.1 16.183-3.27L21.59.768c.273-.112.585-.107.852.015l1.966.91c5.537 2.558 11.43 3.855 17.515 3.855h1.073c.554 0 1.004.422 1.004.947v11.79c0 8.452-4.067 16.438-10.877 21.36h-.002L22.609 47.24c-.18.132-.394.197-.609.197z" mask="url(#hew1m5b4ob)"/>
                    </g>
                    <path fill="#7F79E3" d="M28.321 13.77c-.19-.012-.38-.02-.574-.02-2.225 0-4.245 1.808-5.748 3.27-1.501-1.462-3.52-3.27-5.748-3.27-.193 0-.383.008-.572.02-5.903.415-7.985 7.763-4.012 12.3 3.117 3.56 5.225 2.969 10.332 8.253v.052c.01-.008.018-.017.026-.025l.026.025v-.052c5.109-5.284 7.163-4.693 10.282-8.253 3.973-4.537 1.89-11.885-4.012-12.3" transform="translate(-375 -1958) translate(375 1958) translate(5.5 4.125)"/>
                </g>
            </g>
        </g>
    </g>
</svg>
