<svg xmlns="http://www.w3.org/2000/svg" xmlns:xlink="http://www.w3.org/1999/xlink" width="55" height="55" viewBox="0 0 55 55">
    <defs>
        <path id="9eu99a059a" d="M0.074 1.032L15.121 1.032 15.121 16.467 0.074 16.467z"/>
        <path id="1ke62fgafc" d="M0 0.321L25.738 0.321 25.738 20.337 0 20.337z"/>
        <path id="ldh1lb9gje" d="M1.135 1.032L16.182 1.032 16.182 16.467 1.135 16.467z"/>
        <path id="c9hvf3v06g" d="M0.136 0.321L25.874 0.321 25.874 20.337 0.136 20.337z"/>
        <path id="cfk45up55i" d="M0.687 0.439L25.235 0.439 25.235 18.333 0.687 18.333z"/>
    </defs>
    <g fill="none" fill-rule="evenodd">
        <g>
            <g>
                <g>
                    <g transform="translate(-1010 -1603) translate(1010 1603) translate(0 8.938) translate(5.5 .688)">
                        <mask id="e4unevp11b" fill="#fff">
                            <use xlink:href="#9eu99a059a"/>
                        </mask>
                        <path fill="#1B1464" d="M7.597 2.865c-3.164 0-5.736 2.638-5.736 5.883s2.572 5.885 5.736 5.885c3.164 0 5.736-2.64 5.736-5.885 0-3.245-2.572-5.883-5.736-5.883m0 13.602c-4.148 0-7.523-3.463-7.523-7.719 0-4.255 3.375-7.716 7.523-7.716 4.15 0 7.524 3.461 7.524 7.716 0 4.256-3.375 7.719-7.524 7.719" mask="url(#e4unevp11b)"/>
                    </g>
                    <g transform="translate(-1010 -1603) translate(1010 1603) translate(0 8.938) translate(0 17.188)">
                        <mask id="qe2yj00dyd" fill="#fff">
                            <use xlink:href="#1ke62fgafc"/>
                        </mask>
                        <path fill="#1B1464" d="M12.538 2.196c-5.903 0-10.705 4.913-10.705 10.95v.5c0 2.656 2.112 4.816 4.708 4.816h12.657c2.596 0 4.707-2.16 4.707-4.815v-.5c0-6.038-4.802-10.95-10.705-10.95h-.662zm6.66 18.14H6.541C2.935 20.337 0 17.336 0 13.647v-.5C0 6.074 5.624.321 12.538.321h.662c6.913 0 12.538 5.753 12.538 12.825v.5c0 3.689-2.933 6.69-6.54 6.69z" mask="url(#qe2yj00dyd)"/>
                    </g>
                    <g transform="translate(-1010 -1603) translate(1010 1603) translate(0 8.938) translate(33 .688)">
                        <mask id="lsrqnxdutf" fill="#fff">
                            <use xlink:href="#ldh1lb9gje"/>
                        </mask>
                        <path fill="#1B1464" d="M8.658 2.865c-3.164 0-5.736 2.638-5.736 5.883s2.572 5.885 5.736 5.885c3.164 0 5.736-2.64 5.736-5.885 0-3.245-2.572-5.883-5.736-5.883m0 13.602c-4.148 0-7.523-3.463-7.523-7.719 0-4.255 3.375-7.716 7.523-7.716 4.15 0 7.524 3.461 7.524 7.716 0 4.256-3.375 7.719-7.524 7.719" mask="url(#lsrqnxdutf)"/>
                    </g>
                    <g transform="translate(-1010 -1603) translate(1010 1603) translate(0 8.938) translate(28.875 17.188)">
                        <mask id="sl13d9vvoh" fill="#fff">
                            <use xlink:href="#c9hvf3v06g"/>
                        </mask>
                        <path fill="#1B1464" d="M12.674 2.196c-5.903 0-10.705 4.913-10.705 10.95v.5c0 2.656 2.112 4.816 4.708 4.816h12.658c2.596 0 4.706-2.16 4.706-4.815v-.5c0-6.038-4.802-10.95-10.705-10.95h-.662zm6.66 18.14H6.678c-3.606 0-6.541-3.001-6.541-6.69v-.5C.136 6.074 5.76.321 12.674.321h.662c6.913 0 12.538 5.753 12.538 12.825v.5c0 3.689-2.933 6.69-6.54 6.69z" mask="url(#sl13d9vvoh)"/>
                    </g>
                    <g>
                        <path fill="#7F79E3" d="M19.944 7.578c0 3.787-3.126 6.858-6.983 6.858-3.857 0-6.981-3.07-6.981-6.858 0-3.79 3.124-6.86 6.98-6.86 3.858 0 6.984 3.07 6.984 6.86" transform="translate(-1010 -1603) translate(1010 1603) translate(0 8.938) translate(13.75 4.813)"/>
                        <g transform="translate(-1010 -1603) translate(1010 1603) translate(0 8.938) translate(13.75 4.813) translate(0 14.667)">
                            <mask id="zfn2blfnrj" fill="#fff">
                                <use xlink:href="#cfk45up55i"/>
                            </mask>
                            <path fill="#7F79E3" d="M18.82 18.334H7.103c-3.545 0-6.417-2.821-6.417-6.303v-.497C.687 5.407 5.744.44 11.98.44h1.963c6.237 0 11.292 4.968 11.292 11.095v.497c0 3.482-2.872 6.303-6.416 6.303" mask="url(#zfn2blfnrj)"/>
                        </g>
                    </g>
                </g>
            </g>
        </g>
    </g>
</svg>
