<svg xmlns="http://www.w3.org/2000/svg" xmlns:xlink="http://www.w3.org/1999/xlink" width="60" height="60" viewBox="0 0 60 60">
    <defs>
        <path id="3zo06ux2ka" d="M0.001 1.093L56.367 1.093 56.367 47.443 0.001 47.443z"/>
    </defs>
    <g fill="none" fill-rule="evenodd">
        <g>
            <g>
                <g>
                    <g transform="translate(-611 -880) translate(611 880) translate(1.5 7.5)">
                        <mask id="4tekbceglb" fill="#fff">
                            <use xlink:href="#3zo06ux2ka"/>
                        </mask>
                        <path fill="#1B1464" d="M12.98 38.693h30.406c1.822 0 3.302 1.512 3.302 3.37v2.006c0 .673.534 1.219 1.189 1.219h5.189c.656 0 1.19-.546 1.19-1.219V23.013c0-.2-.048-.399-.141-.571l-9.734-18.55c-.21-.395-.61-.643-1.05-.643H13.035c-.44 0-.84.248-1.047.64L2.25 22.44c-.093.175-.139.374-.139.574V44.07c0 .673.532 1.219 1.189 1.219H8.49c.656 0 1.19-.546 1.19-1.219v-2.005c0-1.86 1.48-3.37 3.3-3.37m40.086 8.75h-5.19c-1.82 0-3.299-1.516-3.299-3.375v-2.005c0-.669-.534-1.214-1.19-1.214H12.98c-.657 0-1.189.545-1.189 1.214v2.005c0 1.86-1.482 3.375-3.301 3.375H3.3c-1.82 0-3.3-1.516-3.3-3.375V23.013c0-.556.136-1.106.391-1.596l9.735-18.544c.574-1.097 1.689-1.78 2.909-1.78H43.33c1.219 0 2.331.683 2.91 1.78l9.734 18.546c.255.488.393 1.038.393 1.594V44.07c0 1.86-1.48 3.375-3.302 3.375" mask="url(#4tekbceglb)"/>
                    </g>
                    <path fill="#7F79E3" d="M50.578 36H6.422C5.36 36 4.5 35.228 4.5 34.275v-7.05c0-.953.86-1.725 1.922-1.725h44.156c1.062 0 1.922.772 1.922 1.725v7.05c0 .953-.86 1.725-1.922 1.725" transform="translate(-611 -880) translate(611 880) translate(1.5 7.5)"/>
                </g>
            </g>
        </g>
    </g>
</svg>
