<svg xmlns="http://www.w3.org/2000/svg" width="408" height="340" viewBox="0 0 408 340">
    <defs>
        <linearGradient id="kxd0jjz26a" x1="33.592%" x2="75.205%" y1="85.001%" y2="22.351%">
            <stop offset="0%" stop-color="#DAE0E6"/>
            <stop offset="100%" stop-color="#EFF1F3"/>
        </linearGradient>
    </defs>
    <g fill="none" fill-rule="evenodd">
        <g fill-rule="nonzero">
            <g>
                <path fill="url(#kxd0jjz26a)" d="M312.291 339.991c-47.954-.637-96.398-9.63-145.417-6.416-49.02 3.214-95.889-26.876-135.173-54.728-13.579-9.627-25.378-22.797-29.738-39.216-5.32-20.03 1.016-41.83 8.935-61.62 23.103-57.73 56.888-153.643 115.68-170.22C176.541-6.295 231.205-.801 277.44 20.409c168.832 77.453 164.216 321.302 34.851 319.583z" transform="translate(-940 -227) translate(940 227)"/>
                <g>
                    <g>
                        <path fill="#8901B1" d="M34.7 299.186s.746 8.514-1.08 9.4l-23.36-.048s0-2.657 3.752-3.248c3.752-.59 10.344-2.757 11.46-7.58 1.115-4.824 9.227 1.476 9.227 1.476zM101.728 295.891s.702 11.809-1.123 12.695l-23.36-.048s0-2.657 3.752-3.248c3.752-.59 10.343-2.757 11.459-7.58 1.115-4.824 9.272-1.819 9.272-1.819z" transform="translate(-940 -227) translate(940 227) translate(26.586 23.205) translate(122.367 .307)"/>
                        <path fill="#302C48" d="M102.523 297.344s-4.637 2.355-6.621 2.784c-2.207.48-6.349.175-6.349.175-7.946-21-32.586-106.364-32.586-106.364-1.07 23.606-5.392 47.146-9.882 66.07-.119.506-.24 1.01-.36 1.509v.008c-.109.454-.22.906-.328 1.352-.006.02-.01.04-.014.06-5.45 22.332-10.915 37.54-10.915 37.54s-1.411 1.76-5.34.955c-4.502-.921-6.004-2.872-6.004-2.872 2.914-90.957 4.54-142.247 4.54-142.247s39-20.773 49.595-3.016c10.595 17.756 24.264 144.046 24.264 144.046z" transform="translate(-940 -227) translate(940 227) translate(26.586 23.205) translate(122.367 .307)"/>
                        <path fill="#FFF" d="M88.909 171.211c-5.056-17.822-7.989-40.39-7.95-54.4.054-19.94 1.87-33.983-4.216-36.351 0 0-18.806-5.39-31.75-7.764-1.973-1.101-4.005-2.098-6.087-2.986-4.086-1.636-20.02-24.472-22.722-29.939-2.701-5.467-7.173-29.288-7.173-29.288l-6.209 1.952s-1.865 26.738-.97 33.707c.893 6.97 20.623 36.936 22.26 39.558 7.024 25.311 0 66.501 3.21 75.685 1.65 4.724 32.273 13.38 49.033 12.29.835-.054 1.637-.132 2.397-.237l.008-.002c3.965-.543 10.169-2.225 10.169-2.225z" transform="translate(-940 -227) translate(940 227) translate(26.586 23.205) translate(122.367 .307)"/>
                        <path fill="#9EA4B8" d="M9.011 10.483S12.52.433 9.953.141C7.387-.151.948-.12.153 1.577c-.794 1.697 2.65 10.858 2.65 10.858l6.208-1.952z" transform="translate(-940 -227) translate(940 227) translate(26.586 23.205) translate(122.367 .307)"/>
                        <path fill="#9EA4B8" d="M.154 1.577s-.331 3.46.794 4.113c1.126.653 1.523-4.113 1.523-4.113s.066 3.91.927 4.174c.86.265 1.39-4.5 1.39-4.5s.092 3.786.675 3.655c.584-.13.981-3.655.981-3.655s.265 2.748 1.06 2.255c.794-.493 1.55-3.443 1.55-3.443l-8.9 1.514zM9.011 10.483s2.4-1.856 2.929-3.553c.53-1.697 2.086-4.55 1.258-4.896-.828-.345-3.245 3.33-3.245 3.33l-.942 5.12zM50.602 69.961l-.302 1.546s-1.396 4.748 4.497 6.63c5.892 1.884 10.859 2.756 11.443-1.004.036-2.992-.04-7.663.4-10.059.18-.971.446-1.925.794-2.851l-11.646-2.51-3.555-.117-1.631 8.365z" transform="translate(-940 -227) translate(940 227) translate(26.586 23.205) translate(122.367 .307)"/>
                        <path fill="#7F8494" d="M52.233 61.596l-1.084 5.638c11.064 2.889 15.904-1.98 16.285-3.011l-11.646-2.51-3.555-.117z" transform="translate(-940 -227) translate(940 227) translate(26.586 23.205) translate(122.367 .307)"/>
                        <path fill="#9EA4B8" d="M69.141 61.884c-3.432 6.876-12.858 4.011-16.83 2.42-1.12-.446-1.805-.792-1.805-.792-1.204-.703-1.355-2.926-.939-5.668.822-5.426 3.858-12.885 5.316-14.604 2.194-2.587 5.651-5.085 14.554-.13 8.905 4.958 4.104 9.965-.296 18.774z" transform="translate(-940 -227) translate(940 227) translate(26.586 23.205) translate(122.367 .307)"/>
                        <path fill="#302C48" d="M53.914 35.524c3.266.52 6.593.55 9.869.09 4.52-.612 9.061 2.696 10.467 4.01.04-.369-.001-.74-.123-1.09 0 0 .593.722.496 1.476.06.077.084.124.06.132.484.044.95.205 1.355.47 0 0-.363-.158-.566.044-.023.021-.05.038-.079.049 5.432 4.732 3.226 14.685.559 16.39-3.21 2.054-8.72 7.704-8.72 7.704.197-1.508.643-2.974 1.32-4.34 1.125-2.276-.977-2.857-3.32-4.682-2.344-1.825.736-4.266-1.058-6.762-1.795-2.496-10.622-3.762-10.108-5.149-2.838-2.01-.243-8.023-.152-8.342z" transform="translate(-940 -227) translate(940 227) translate(26.586 23.205) translate(122.367 .307)"/>
                        <path fill="#FFF" d="M55.33 59.35s-.574.85-2.872-.153c0 0-1.93-.843-1.483-1.846 0 0 2.189-.028 4.355 2z" transform="translate(-940 -227) translate(940 227) translate(26.586 23.205) translate(122.367 .307)"/>
                        <path fill="#302C48" d="M52.743 82.594s-5.312 34.75-45.04 58.881l-3.709 10.62h14.34s35.584-29.42 37.97-68.502l-3.561-1z" transform="translate(-940 -227) translate(940 227) translate(26.586 23.205) translate(122.367 .307)"/>
                        <path fill="#302C48" d="M52.743 82.594L52.743 77.326 59.291 79.154 56.304 83.593z" transform="translate(-940 -227) translate(940 227) translate(26.586 23.205) translate(122.367 .307)"/>
                        <path fill="#D8DAE6" d="M50.602 69.961l-3.833 3.23c-.553 3.214-.018 6.518 1.523 9.403l7.725-4.354s-4.562-2.173-5.415-8.279zM56.017 78.24s.767 4.09 2.778 6.113c0 0 8.702-1.501 11.118-5.614l-3.645-5.613s-.87 3.83-10.25 5.114z" transform="translate(-940 -227) translate(940 227) translate(26.586 23.205) translate(122.367 .307)"/>
                        <path fill="#9EA4B8" d="M108.158 168.308s.015 7.78-.711 9.327c-.726 1.547-3.983 6.587-5.484 7.665-1.5 1.078.324-6.23-.147-7.567-.472-1.337-1.05 2.636-1.744 2.8-.694.164-.884-3.339-1.044-4.605-.16-1.265 2.959-4.752 3.889-7.578.93-2.826 5.24-.042 5.24-.042z" transform="translate(-940 -227) translate(940 227) translate(26.586 23.205) translate(122.367 .307)"/>
                        <path fill="#FFF" d="M76.62 80.46s7.651 2.055 12.837 13.304c5.438 11.796 19.991 38 20.532 41.615.54 3.617-.964 37.391-.964 37.391s-6.37.243-8.335-2.736c0 0-2.218-29.649-3.198-31.26-.982-1.611-26.044-31.079-23.933-38.556 2.112-7.477 3.06-19.759 3.06-19.759z" transform="translate(-940 -227) translate(940 227) translate(26.586 23.205) translate(122.367 .307)"/>
                        <path fill="#D8DAE6" d="M88.909 171.211c-1.897 1.604-6.72 1.243-10.169 2.225l-.008.002c-.847.24-9.126.342-9.878.267l11.686-73.428c-.04 14.01 8.885 69.869 8.369 70.934z" transform="translate(-940 -227) translate(940 227) translate(26.586 23.205) translate(122.367 .307)"/>
                        <path fill="#233862" d="M46.397 262.878c.092-.418.2-.87.328-1.352-.109.454-.22.906-.328 1.352z" transform="translate(-940 -227) translate(940 227) translate(26.586 23.205) translate(122.367 .307)"/>
                        <path fill="#201E30" d="M47.085 260.009c4.286-19.997-.334-73.583 1.73-74.6 2.119-1.045 8.152 8.53 8.152 8.53-1.07 23.606-5.392 47.146-9.882 66.07z" transform="translate(-940 -227) translate(940 227) translate(26.586 23.205) translate(122.367 .307)"/>
                    </g>
                    <g>
                        <path fill="#9EA4B8" d="M82.286 296.542L80.727 285.468 87.278 280.071 89.341 294.732z" transform="translate(-940 -227) translate(940 227) translate(26.586 23.205)"/>
                        <path fill="#8901B1" d="M104.04 306.433H77.334s-.64-4.013.754-7.057c1.337-2.921 3.417-4.725 3.607-6.963 1.697 1.723 3.785 2.831 7.646 2.32.473.755 3.054 4.802 4.634 5.92 1.745 1.237 9.528.797 10.065 5.78z" transform="translate(-940 -227) translate(940 227) translate(26.586 23.205)"/>
                        <path fill="#302C48" d="M98.674 147.013c-1.746 13.851-3.175 26.91-4.338 39.081-6.215 64.848-4.996 104.484-4.996 104.484s-.449 1.174-4.302 1.19c-1.449-.012-2.893-.165-4.311-.456 0 0-13.916-42.347-12.842-66.445.08-2.63.443-5.245 1.086-7.8 3.338-12.328-12.354-59.48 4.704-77.038 17.055-17.556 25.802.627 25 6.984z" transform="translate(-940 -227) translate(940 227) translate(26.586 23.205)"/>
                        <path fill="#201E30" d="M98.674 147.013c-1.746 13.851-3.175 26.91-4.338 39.081l-26.45 38.773c.078-2.63.442-5.245 1.085-7.8 3.338-12.328-12.354-59.48 4.704-77.038 17.055-17.556 25.802.627 25 6.984z" transform="translate(-940 -227) translate(940 227) translate(26.586 23.205)"/>
                        <path fill="#9EA4B8" d="M119.693 14.892s-.644-3.165-1.369-5.58c-.32-1.069 1.915-8.088 3.462-8.952 1.548-.863 5.577 3.863 4.437 7.493-.586 1.864-1.548 7.931-1.548 7.931l-4.982-.892z" transform="translate(-940 -227) translate(940 227) translate(26.586 23.205)"/>
                        <path fill="#9EA4B8" d="M119.693 14.892s-.84-1.835-1.6-2.133c-.76-.297-1.574-3.298-2.132-4.487 0 0 .539-.778 1.481.223.575.61 1.856 2.401 1.856 2.401l.395 3.996zM9.445 25.537c-.164.333-.392.928-.594 1.488-.003-.153-.006-.303-.007-.452-.011-1.115-4.232-7.181-5.968-7.56-1.736-.38-4.186 5.302-2.018 8.444 1.114 1.614 3.835 7.137 3.835 7.137l4.498-2.29s.26-1.998.898-2.502c.638-.503.525-3.607.706-4.906 0 0-.746-.589-1.35.64zM37.497 293.222c-.377-3.55-.47-12.887-.47-12.887s9.65-3.042 9.296-.953c-1.747 10.266-1.273 15.35-1.273 15.35l-3.903 2.298-3.65-3.808z" transform="translate(-940 -227) translate(940 227) translate(26.586 23.205)"/>
                        <path fill="#302C48" d="M90.614 146.353S53.329 247.114 45.99 290.822c0 0-1.701 1.151-4.873.77-3.597-.434-4.583-2.897-4.583-2.897s-6.735-52.385 6.652-70.572c9.198-12.495-3.967-67.37 17.456-71.77 21.422-4.4 29.972 0 29.972 0zM83.991 49.426v-.004c-.007-.044-.017-.088-.031-.13-.218-.887-.456-1.76-.712-2.626v-.004c-.737-2.523-1.642-4.995-2.711-7.4-.577-1.276-1.174-2.46-1.786-3.515-.093-.162-.184-.314-.272-.47l-.005-.003c-1.44-2.388-2.922-4.038-4.258-4.547-2.438-.93-5.15-.67-7.016-.288.41-.562 1.339-.882 1.339-.882-1.195-.001-3.628 1.522-3.628 1.522-17.173-3.787-16.17 20.163-15 25.591 1.165 5.429-4.364 8.066-12.161 13.62C22.87 80.89 23.118 92.122 23.118 92.122c.134.056.28.12.433.196.599-1.453 1.869-4.205 3.2-4.786-.037.129-1.12 3.693-1.428 5.688 2.267 1.232 5.404 3.139 8.81 5.29l.004.004c4.558 2.876 9.588 6.185 13.618 8.872-.191-1.094-.38-2.652-.099-3.534l1.284 3.922.169.512c2.572 1.72 4.602 3.095 5.632 3.799l.284.19.462.315c-.342-1.386 1.16-5 3.679-9.556.173-.317.356-.64.542-.968.814-1.44 1.723-2.957 2.7-4.522.352-.565.708-1.13 1.078-1.706v-.003l.003-.001c.295-.464.595-.924.904-1.393l.004-.005c.73-1.112 1.485-2.232 2.256-3.353 1.996-2.907 4.109-5.794 6.197-8.44 3.033-3.854 6.008-7.205 8.5-9.397.082-.165.159-.334.228-.506.395-.935.704-1.904.921-2.895.073-.303.137-.609.194-.914.428-2.37.637-4.773.624-7.18.188 2.41.158 4.832-.09 7.237-.049.39-.1.75-.16 1.085v.004c-.108.643-.258 1.28-.45 1.904.415-.512.777-1.063 1.083-1.644.212-.4.4-.81.564-1.23 2.01-5.059 1.468-12.604-.273-19.681z" transform="translate(-940 -227) translate(940 227) translate(26.586 23.205)"/>
                        <path fill="#9EA4B8" d="M80.765 73.688c.058.016-4.807 3.488-8.935 3-3.881-.455-7.038-4.867-6.988-4.885 1.533-.54 1.665-2.748.244-11.94l.735.034 12.362.583s.29 3.766.81 7.277c.437 2.948 1.04 5.717 1.772 5.931z" transform="translate(-940 -227) translate(940 227) translate(26.586 23.205)"/>
                        <path fill="#7F8494" d="M78.183 60.48s.29 3.766.81 7.277c-6.747.799-11.21-4.724-13.172-7.86l12.362.583z" transform="translate(-940 -227) translate(940 227) translate(26.586 23.205)"/>
                        <path fill="#302C48" d="M64.387 58.79s-4.35-4.97-5.902-9.536c-1.109-3.26-1.252-15.927 11.67-15.994 2.6-.025 5.174.525 7.53 1.611 3.023 1.427 7.583 4.794 4.785 16.276l-.6 3.828-17.483 3.815z" transform="translate(-940 -227) translate(940 227) translate(26.586 23.205)"/>
                        <path fill="#FFF" d="M100.232 144.418s-16.086 9.425-36.284 4.58c-.237-.058-16.63-2.637-16.63-2.637.281-.76 2.4-13.245 2.677-13.943 3.583-9.116 10.132-58.592 15.603-61.033 1.397 1.5 5.39 2.527 8.807 2.227 3.936-.343 5.253-2.019 4.926-3.821 4.355 2.03 7.701 3.916 7.701 3.916 3.98 5.88 13.2 70.711 13.2 70.711z" transform="translate(-940 -227) translate(940 227) translate(26.586 23.205)"/>
                        <path fill="#9EA4B8" d="M80.929 63.475s-15.86 2.59-17.344-7.172c-1.484-9.762-4.53-16.002 5.533-18.069 10.063-2.066 12.601 1.367 13.9 4.507 1.3 3.14 1.998 19.808-2.09 20.734z" transform="translate(-940 -227) translate(940 227) translate(26.586 23.205)"/>
                        <path fill="#302C48" d="M76.323 36.933s-2.625 12.093-9.05 14.766c-6.425 2.674-9.589 1.334-9.589 1.334s4.519-4.765 4.525-11.926c0 0 10.008-9.144 14.114-4.174z" transform="translate(-940 -227) translate(940 227) translate(26.586 23.205)"/>
                        <path fill="#302C48" d="M75.384 38.021s3.637 2.08 4.805 4.45c1.167 2.37 2.296 7.437 3.783 7.04 0 0 2.105-8.266-2.245-12.13-4.613-4.096-6.343.64-6.343.64z" transform="translate(-940 -227) translate(940 227) translate(26.586 23.205)"/>
                        <path fill="#8901B1" d="M124.783 15.117c-.645-.224-1.595-.754-2.835-.864-.839-.031-1.678.055-2.492.257 0 0-4.474 27.422-4.807 28.875-.332 1.453-19.192 22.399-24.277 22.315-4.591-.076-10.031 3.419-11.04 4.09 0 0 10.692 22.292 11.226 26.48.58 4.556 6.115 74.723 6.115 74.723s-.329 3.264 5.857 1.51c6.187-1.755 7.734-3.208 7.734-3.208s-5.683-55.24-6.875-72.418c-.146-2.167-.51-4.314-1.085-6.41-.513-1.903-.121-3.933 1.064-5.519 7.821-10.585 20.172-27.734 20.86-31.38 1.011-5.355.555-38.45.555-38.45zM59.75 306.433H33.042s-.64-4.013.755-7.057c1.336-2.921 3.416-4.725 3.606-6.963 1.697 1.723 3.785 2.831 7.646 2.32.473.755 3.054 4.802 4.634 5.92 1.745 1.237 9.528.797 10.065 5.78zM78.095 98.435c-.9-5.46-12.392-27.386-12.392-27.386s-7.264-2.142-12.046-.435c-4.781 1.708-29.52-12.062-30.313-13.33-.793-1.268-14.043-25.61-14.043-25.61s-1.098-.627-2.859.278c-1.017.512-1.682 1.518-1.75 2.642 0 0 10.227 30.648 12.948 35.39 1.64 2.858 15.433 12.812 26.127 20.265 2.043 1.422 3.114 3.846 2.78 6.29-1.439 10.48-1.805 16.381-3.458 34.365-1.372 14.919-1.898 43.8-1.898 43.8s11.967 4.084 20.226 4.625c8.26.542 10.06-8.042 10.06-8.042s7.543-67.237 6.618-72.852z" transform="translate(-940 -227) translate(940 227) translate(26.586 23.205)"/>
                        <path fill="#FFF" d="M75.732 58.648c1.285.68 2.753.953 4.201.78 1.559-.23 1.913-2.054 1.913-2.054-.925-.212-1.888-.21-2.812.006-1.159.26-2.271.687-3.302 1.268z" transform="translate(-940 -227) translate(940 227) translate(26.586 23.205)"/>
                    </g>
                    <g>
                        <path fill="#302C48" d="M52.323 46.372s4.659 7.568-4.1 12.334c0 0 6.733 2.393 9.077 1.49-.304.314-.648.587-1.023.814 0 0 6.327 1.98 9.48.9 3.154-1.082 9.945-31.283-8.729-32.876 0 0-14.73-5.2-17.844 11.006-3.115 16.206-8.787 14.633-8.787 14.633s1.375 1.145 2.137 1.357c0 0 1.223-.078 1.603-.577 0 0-.47.819-.836 1.02 0 0 5.972 2.226 9.63.97 3.657-1.254 9.334-7.565 9.392-11.07z" transform="translate(-940 -227) translate(940 227) translate(26.586 23.205) translate(221.38 27.014)"/>
                        <path fill="#8901B1" d="M33.576 284.796H57.4s.572-3.58-.673-6.296c-1.192-2.606-3.048-4.214-3.217-6.21-1.514 1.536-3.377 2.524-6.821 2.068-.422.674-2.724 4.284-4.134 5.283-1.557 1.103-8.5.71-8.979 5.155z" transform="translate(-940 -227) translate(940 227) translate(26.586 23.205) translate(221.38 27.014)"/>
                        <path fill="#302C48" d="M53.263 275.825c-1.354.412-2.745.691-4.154.835-3.753.33-4.3-.772-4.3-.772s-3.73-32.728-15.8-95.288c-1.742-9.035-2.43-14.036-3.058-22.067-.188-2.405-.372-5.08-.573-8.217-.547-8.43.75-22.622 7.169-26.35 2.917-1.699 6.893-1.233 12.238 2.917.42.327.852.678 1.29 1.052 15.642 13.34 9.229 51.65 9.86 69.661.107 2.986 3.57 12.213 3.963 15.023 3.284 23.36-6.635 63.206-6.635 63.206z" transform="translate(-940 -227) translate(940 227) translate(26.586 23.205) translate(221.38 27.014)"/>
                        <path fill="#201E30" d="M55.936 197.596L25.95 158.533c-.188-2.405-.372-5.08-.573-8.217-.547-8.43.75-22.622 7.169-26.35l12.238 2.917c.42.327.852.678 1.29 1.052 15.642 13.34 9.229 51.65 9.86 69.661z" transform="translate(-940 -227) translate(940 227) translate(26.586 23.205) translate(221.38 27.014)"/>
                        <path fill="#8901B1" d="M140.692 235.364l-9.916-21.357s-3.54.978-5.526 3.224c-1.907 2.154-3.288 1.77-7.633-1.202 1.635 2.49 1.856 3.958 2.869 7.236.797.097 5.34 4.43 9.993 5.624 1.855.477 5.913 7.896 10.213 6.475z" transform="translate(-940 -227) translate(940 227) translate(26.586 23.205) translate(221.38 27.014)"/>
                        <path fill="#302C48" d="M36.732 133.339s21.348 73.168 29.17 77.878c7.822 4.71 48.949 11.187 57.31 14.72 0 0 1.017-1.44.42-4.515-.133-.683-1.312-3.14-1.312-3.14L78.77 198.47s9.693-64.307-18.496-66.815c-25.75-2.291-23.542 1.684-23.542 1.684z" transform="translate(-940 -227) translate(940 227) translate(26.586 23.205) translate(221.38 27.014)"/>
                        <path fill="#9EA4B8" d="M6.274 13.296s.574-2.824 1.22-4.978c.287-.953-1.708-7.215-3.087-7.985C3.027-.438-.568 3.779.449 7.017c.522 1.663 1.38 7.075 1.38 7.075l4.445-.796z" transform="translate(-940 -227) translate(940 227) translate(26.586 23.205) translate(221.38 27.014)"/>
                        <path fill="#9EA4B8" d="M6.274 13.296s.75-1.637 1.428-1.902c.677-.266 1.404-2.943 1.901-4.004 0 0-.48-.694-1.32.2-.514.544-1.657 2.141-1.657 2.141l-.352 3.565zM104.623 22.792c.146.297.35.828.53 1.327l.006-.403c.01-.994 3.776-6.406 5.324-6.745 1.549-.338 3.734 4.731 1.8 7.534-.993 1.44-3.42 6.366-3.42 6.366l-4.014-2.043s-.231-1.782-.8-2.231c-.57-.45-.47-3.218-.63-4.376 0 0 .666-.526 1.204.57zM41 65.746c-.051.014 4.29 3.112 7.97 2.677 3.464-.407 6.28-4.342 6.235-4.358-1.367-.483-1.486-2.452-.218-10.652l-.656.03-11.028.52s-.257 3.36-.722 6.492c-.39 2.63-.928 5.1-1.58 5.291z" transform="translate(-940 -227) translate(940 227) translate(26.586 23.205) translate(221.38 27.014)"/>
                        <path fill="#7F8494" d="M43.304 53.964s-.258 3.36-.723 6.491c6.02.713 10.001-4.214 11.75-7.012l-11.027.52z" transform="translate(-940 -227) translate(940 227) translate(26.586 23.205) translate(221.38 27.014)"/>
                        <path fill="#302C48" d="M55.611 52.456s3.88-4.433 5.265-8.507c.989-2.908 1.116-14.207-10.41-14.268-2.32-.022-4.616.47-6.718 1.438-2.697 1.272-6.765 4.276-4.268 14.519l.535 3.415 15.596 3.403z" transform="translate(-940 -227) translate(940 227) translate(26.586 23.205) translate(221.38 27.014)"/>
                        <path fill="#9EA4B8" d="M27.169 130.52s10.816 6.73 28.833 2.407c.212-.05 10.244-1.628 10.244-1.628-.251-.678-10.793-17.85-11.04-18.473-3.196-8.133 4.205-46.957-.676-49.134-1.246 1.338-4.808 2.253-7.856 1.987-3.51-.306-4.686-1.801-4.395-3.41-3.884 1.811-6.87 3.494-6.87 3.494-3.55 5.246-8.24 64.758-8.24 64.758zM40.854 56.635s14.148 2.31 15.472-6.398c1.324-8.708 4.042-14.275-4.936-16.118-8.976-1.844-11.24 1.22-12.4 4.02-1.159 2.8-1.782 17.67 1.864 18.496z" transform="translate(-940 -227) translate(940 227) translate(26.586 23.205) translate(221.38 27.014)"/>
                        <path fill="#302C48" d="M44.963 32.958s2.342 10.788 8.073 13.173c5.732 2.384 8.554 1.19 8.554 1.19-2.556-2.978-3.983-6.74-4.036-10.64 0 0-8.928-8.157-12.59-3.723z" transform="translate(-940 -227) translate(940 227) translate(26.586 23.205) translate(221.38 27.014)"/>
                        <path fill="#302C48" d="M45.8 33.929s-3.244 1.856-4.285 3.97c-1.042 2.114-2.049 6.634-3.375 6.28 0 0-1.878-7.374 2.003-10.82 4.115-3.656 5.657.57 5.657.57z" transform="translate(-940 -227) translate(940 227) translate(26.586 23.205) translate(221.38 27.014)"/>
                        <path fill="#FFF" d="M107.943 30.871S98.82 58.211 96.39 62.44c-1.462 2.551-17.897 12.639-27.436 19.288-.147.122-.271.268-.366.432-.003.005-.007.01-.011.013-2.381 3.63-9.781 26.097-8.013 30.13 7.44 16.948 12.538 23.503 14.394 28.258.444 1.137.403 2.402-.112 3.51-.516 1.107-1.463 1.962-2.628 2.37-4.187 1.465-8.494 2.575-12.873 3.32-1.014.173-2.055.327-3.124.461-14.662 1.835-27.884-2.596-32.925-5.103 0 0 2.646-15.91 3.872-28.805.93-9.784-7.273-29.88-7.273-29.88.144-2.06 1.787-4.525 2.676-6.122 0-.002.001-.003.003-.005 1.574-2.826 2.439-5.38 1.39-6.798-6.978-9.441-22.043-22.46-22.659-25.71-.9-4.778-.493-34.303-.493-34.303.576-.2 1.422-.673 2.53-.77.747-.028 1.495.049 2.22.228 0 0 3.993 24.464 4.29 25.76.297 1.295 17.12 19.981 21.656 19.905 4.095-.068 9.87 3.052 10.77 3.65-2.463 4.71-4.021 9.83-4.594 15.1-.64 6.068 3.472 3.37 6.054-.785 3.496-5.627 10.532-13.636 10.532-13.636s5.726-1.468 9.991.057c4.265 1.523 26.335-10.763 27.041-11.893.709-1.13 12.528-22.845 12.528-22.845s.98-.56 2.55.246c.908.458 1.501 1.355 1.562 2.358z" transform="translate(-940 -227) translate(940 227) translate(26.586 23.205) translate(221.38 27.014)"/>
                        <path fill="#FFF" d="M44.963 51.907s-.605 1.203-1.419 1.225c-.813.022-2.882-.171-3.022-.38-.195-.477-.356-.966-.484-1.465 0 0 3.419-.135 4.925.62z" transform="translate(-940 -227) translate(940 227) translate(26.586 23.205) translate(221.38 27.014)"/>
                        <path fill="#D8DAE6" d="M72.22 146.441c-4.188 1.465-8.495 2.575-12.874 3.32-5.059-6.876-13.62-15.527-11.417-31.44 2.277-16.449 18.68-33.761 20.649-36.148-2.381 3.63-9.781 26.097-8.013 30.13 7.44 16.948 12.538 23.503 14.394 28.258.444 1.137.403 2.402-.112 3.51-.516 1.107-1.463 1.962-2.628 2.37zM22.575 80.307c1.574-2.826 2.439-5.38 1.39-6.798-6.977-9.441-22.043-22.46-22.659-25.71 1.495 3.533 19.74 14.086 24.87 18.624 5.073 4.48-3.394 13.664-3.601 13.884z" transform="translate(-940 -227) translate(940 227) translate(26.586 23.205) translate(221.38 27.014)"/>
                    </g>
                </g>
            </g>
        </g>
    </g>
</svg>
