<svg xmlns="http://www.w3.org/2000/svg" width="50" height="50" viewBox="0 0 50 50">
    <g fill="none" fill-rule="evenodd" opacity=".7">
        <g>
            <g transform="translate(-1299 -2771) translate(1300 2771)">
                <ellipse cx="24" cy="24.749" fill="#FFF" stroke="#FFF" rx="24" ry="24.084"/>
                <path fill="#2B2D39" fill-rule="nonzero" d="M16.5 14.714c-1.448 0-2.5 1.046-2.5 2.483 0 1.443 1.077 2.535 2.5 2.535 1.448 0 2.5-1.066 2.5-2.564-.067-1.443-1.098-2.454-2.5-2.454zM14.417 20.735c-.23 0-.417.204-.417.453v13.143c0 .249.188.453.417.453h4.166c.23 0 .417-.204.417-.453V21.188c0-.249-.188-.453-.417-.453h-4.166zM20.42 20.735c-.231 0-.42.204-.42.453v13.143c0 .249.189.453.42.453h3.774c.231 0 .419-.203.419-.453v-7.025c0-1.074.763-1.949 1.736-2.03.05-.01.1-.009.151-.009.05 0 .1 0 .15.009.974.081 1.737.956 1.737 2.03v7.025c0 .25.188.453.42.453h3.774c.23 0 .419-.204.419-.453v-7.704c0-2.933-1.456-5.892-4.701-5.892-1.476 0-2.592.617-3.267 1.129v-.676c0-.249-.188-.453-.42-.453H20.42z"/>
            </g>
        </g>
    </g>
</svg>
