<svg xmlns="http://www.w3.org/2000/svg" width="626" height="627" viewBox="0 0 626 627">
    <g fill="none" fill-opacity=".48" fill-rule="evenodd" opacity=".235">
        <g fill="#031892">
            <g>
                <path d="M313.001 57C418.981 94.051 495 194.9 495 313.5S418.981 532.949 313.001 570C207.02 532.95 131 432.1 131 313.5c0-118.526 75.923-219.323 181.8-256.43z" transform="translate(-981 -2332) translate(981 2332)"/>
                <path d="M313.001 57.452C418.881 94.469 494.83 195.226 494.83 313.719c0 118.492-75.947 219.25-181.828 256.267-105.882-37.017-181.83-137.774-181.83-256.267C131.17 195.3 207.023 94.595 312.8 57.52z" transform="translate(-981 -2332) translate(981 2332) rotate(30 313 313.719)"/>
                <path d="M313.001 57.452C418.881 94.469 494.83 195.226 494.83 313.719c0 118.492-75.947 219.25-181.828 256.267-105.882-37.017-181.83-137.774-181.83-256.267C131.17 195.3 207.023 94.595 312.8 57.52z" transform="translate(-981 -2332) translate(981 2332) rotate(60 313 313.719)"/>
                <path d="M313.001 57C418.981 94.051 495 194.9 495 313.5S418.981 532.949 313.001 570C207.02 532.95 131 432.1 131 313.5c0-118.526 75.923-219.323 181.8-256.43z" transform="translate(-981 -2332) translate(981 2332) rotate(90 313 313.5)"/>
                <path d="M313.001 57.452C418.881 94.469 494.83 195.226 494.83 313.719c0 118.492-75.947 219.25-181.828 256.267-105.882-37.017-181.83-137.774-181.83-256.267C131.17 195.3 207.023 94.595 312.8 57.52z" transform="translate(-981 -2332) translate(981 2332) rotate(120 313 313.719)"/>
                <path d="M313.001 57.452C418.881 94.469 494.83 195.226 494.83 313.719c0 118.492-75.947 219.25-181.828 256.267-105.882-37.017-181.83-137.774-181.83-256.267C131.17 195.3 207.023 94.595 312.8 57.52z" transform="translate(-981 -2332) translate(981 2332) rotate(150 313 313.719)"/>
            </g>
        </g>
    </g>
</svg>
